<svg viewBox="0 0 560 400" xmlns="http://www.w3.org/2000/svg" font-family='Georgia, "Times New Roman", serif'>
<rect width="100%" height="100%" fill="#fcfbf7"/>
<text x="280.0" y="26" text-anchor="middle" font-size="13" fill="#666" font-style="italic">Kuş düz uçar; taksi cadde boyunca gider</text>
<line x1="90" y1="330" x2="90" y2="30" stroke="#e2ddd0" stroke-width="1.5"/>
<line x1="90" y1="330" x2="390" y2="330" stroke="#e2ddd0" stroke-width="1.5"/>
<line x1="150" y1="330" x2="150" y2="30" stroke="#e2ddd0" stroke-width="1.5"/>
<line x1="90" y1="270" x2="390" y2="270" stroke="#e2ddd0" stroke-width="1.5"/>
<line x1="210" y1="330" x2="210" y2="30" stroke="#e2ddd0" stroke-width="1.5"/>
<line x1="90" y1="210" x2="390" y2="210" stroke="#e2ddd0" stroke-width="1.5"/>
<line x1="270" y1="330" x2="270" y2="30" stroke="#e2ddd0" stroke-width="1.5"/>
<line x1="90" y1="150" x2="390" y2="150" stroke="#e2ddd0" stroke-width="1.5"/>
<line x1="330" y1="330" x2="330" y2="30" stroke="#e2ddd0" stroke-width="1.5"/>
<line x1="90" y1="90" x2="390" y2="90" stroke="#e2ddd0" stroke-width="1.5"/>
<line x1="390" y1="330" x2="390" y2="30" stroke="#e2ddd0" stroke-width="1.5"/>
<line x1="90" y1="30" x2="390" y2="30" stroke="#e2ddd0" stroke-width="1.5"/>
<line x1="90" y1="330" x2="270" y2="210" stroke="#2e6da4" stroke-width="3" stroke-dasharray="6 4"/>
<text x="110.0" y="264.0" font-size="14" fill="#2e6da4">kuş uçuşu ≈ 3.6</text>
<path d="M 90 330 L 270 330 L 270 210" fill="none" stroke="#c0562e" stroke-width="4"/>
<text x="282" y="270" font-size="14" fill="#c0562e">taksi yolu = 5</text>
<circle cx="90" cy="330" r="6" fill="#2b2b2b"/>
<text x="80" y="352" text-anchor="middle" font-size="16" fill="#2b2b2b">A</text>
<circle cx="270" cy="210" r="6" fill="#2b2b2b"/>
<text x="286" y="216" font-size="16" fill="#2b2b2b">B</text>
<text x="280.0" y="372" text-anchor="middle" font-size="14" fill="#555">3 blok doğu + 2 blok kuzey = 5 blok (köşegen yok)</text>
</svg>