<svg viewBox="0 0 620 380" xmlns="http://www.w3.org/2000/svg" font-family='Georgia, "Times New Roman", serif'>
<rect width="100%" height="100%" fill="#fcfbf7"/>
<text x="310.0" y="26" text-anchor="middle" font-size="13" fill="#666" font-style="italic">Boyut arttıkça en uzak ve en yakın nokta birbirine yaklaşır: 'öyle yakın' anlamını yitirir</text>
<polyline points="90.0,70.0 142.2,286.7 194.4,313.4 246.7,317.6 298.9,319.1 351.1,319.7 403.3,319.8 455.6,319.8 507.8,319.9 560.0,319.9" fill="none" stroke="#7a5ba6" stroke-width="3"/>
<circle cx="90.0" cy="70.0" r="4" fill="#7a5ba6"/>
<text x="90.0" y="338" text-anchor="middle" font-size="11" fill="#666">1</text>
<circle cx="142.2" cy="286.7" r="4" fill="#7a5ba6"/>
<text x="142.2" y="338" text-anchor="middle" font-size="11" fill="#666">2</text>
<circle cx="194.4" cy="313.4" r="4" fill="#7a5ba6"/>
<circle cx="246.7" cy="317.6" r="4" fill="#7a5ba6"/>
<circle cx="298.9" cy="319.1" r="4" fill="#7a5ba6"/>
<text x="298.9" y="338" text-anchor="middle" font-size="11" fill="#666">10</text>
<circle cx="351.1" cy="319.7" r="4" fill="#7a5ba6"/>
<circle cx="403.3" cy="319.8" r="4" fill="#7a5ba6"/>
<circle cx="455.6" cy="319.8" r="4" fill="#7a5ba6"/>
<text x="455.6" y="338" text-anchor="middle" font-size="11" fill="#666">100</text>
<circle cx="507.8" cy="319.9" r="4" fill="#7a5ba6"/>
<circle cx="560.0" cy="319.9" r="4" fill="#7a5ba6"/>
<text x="560.0" y="338" text-anchor="middle" font-size="11" fill="#666">500</text>
<line x1="90" y1="320.0" x2="560" y2="320.0" stroke="#bbb" stroke-dasharray="4 4"/>
<text x="552" y="314.0" text-anchor="end" font-size="12" fill="#888">oran=1</text>
<line x1="90" y1="70" x2="90" y2="320" stroke="#999"/>
<line x1="90" y1="320" x2="560" y2="320" stroke="#999"/>
<text x="325.0" y="362" text-anchor="middle" font-size="14" fill="#555">boyut sayısı (eksen logaritmik aralıklı) →</text>
<text x="34" y="195.0" text-anchor="middle" font-size="13" fill="#555" transform="rotate(-90 34 195.0)">en uzak / en yakın</text>
</svg>