<svg viewBox="0 0 680 400" xmlns="http://www.w3.org/2000/svg" font-family='Georgia, "Times New Roman", serif'>
<rect width="100%" height="100%" fill="#fcfbf7"/>
<text x="340.0" y="26" text-anchor="middle" font-size="13" fill="#666" font-style="italic">Aynı iki nokta (farklar 3 ve 2): p büyüdükçe mesafe en büyük farka iner, altına düşmez</text>
<line x1="90" y1="281.5" x2="540" y2="281.5" stroke="#4a8a5c" stroke-width="1.5" stroke-dasharray="5 4"/>
<text x="545" y="285.5" font-size="13" fill="#4a8a5c">3 (Chebyshev)</text>
<polyline points="90.0,89.2 92.3,105.9 94.5,120.3 96.8,132.9 99.0,144.1 101.3,153.9 103.6,162.8 105.8,170.7 108.1,177.8 110.4,184.3 112.6,190.2 114.9,195.6 117.1,200.5 119.4,205.0 121.7,209.2 123.9,213.1 126.2,216.6 128.4,220.0 130.7,223.0 133.0,225.9 135.2,228.6 137.5,231.1 139.7,233.5 142.0,235.7 144.3,237.8 146.5,239.7 148.8,241.5 151.1,243.3 153.3,244.9 155.6,246.5 157.8,247.9 160.1,249.3 162.4,250.6 164.6,251.9 166.9,253.1 169.1,254.2 171.4,255.3 173.7,256.3 175.9,257.3 178.2,258.2 180.5,259.1 182.7,259.9 185.0,260.7 187.2,261.5 189.5,262.3 191.8,263.0 194.0,263.6 196.3,264.3 198.5,264.9 200.8,265.5 203.1,266.1 205.3,266.6 207.6,267.1 209.8,267.6 212.1,268.1 214.4,268.6 216.6,269.0 218.9,269.4 221.2,269.9 223.4,270.3 225.7,270.6 227.9,271.0 230.2,271.3 232.5,271.7 234.7,272.0 237.0,272.3 239.2,272.6 241.5,272.9 243.8,273.2 246.0,273.5 248.3,273.7 250.6,274.0 252.8,274.2 255.1,274.5 257.3,274.7 259.6,274.9 261.9,275.1 264.1,275.3 266.4,275.5 268.6,275.7 270.9,275.9 273.2,276.1 275.4,276.2 277.7,276.4 279.9,276.6 282.2,276.7 284.5,276.9 286.7,277.0 289.0,277.1 291.3,277.3 293.5,277.4 295.8,277.5 298.0,277.7 300.3,277.8 302.6,277.9 304.8,278.0 307.1,278.1 309.3,278.2 311.6,278.3 313.9,278.4 316.1,278.5 318.4,278.6 320.7,278.7 322.9,278.8 325.2,278.8 327.4,278.9 329.7,279.0 332.0,279.1 334.2,279.1 336.5,279.2 338.7,279.3 341.0,279.4 343.3,279.4 345.5,279.5 347.8,279.5 350.1,279.6 352.3,279.7 354.6,279.7 356.8,279.8 359.1,279.8 361.4,279.9 363.6,279.9 365.9,280.0 368.1,280.0 370.4,280.0 372.7,280.1 374.9,280.1 377.2,280.2 379.4,280.2 381.7,280.2 384.0,280.3 386.2,280.3 388.5,280.4 390.8,280.4 393.0,280.4 395.3,280.5 397.5,280.5 399.8,280.5 402.1,280.5 404.3,280.6 406.6,280.6 408.8,280.6 411.1,280.6 413.4,280.7 415.6,280.7 417.9,280.7 420.2,280.7 422.4,280.8 424.7,280.8 426.9,280.8 429.2,280.8 431.5,280.8 433.7,280.9 436.0,280.9 438.2,280.9 440.5,280.9 442.8,280.9 445.0,281.0 447.3,281.0 449.5,281.0 451.8,281.0 454.1,281.0 456.3,281.0 458.6,281.0 460.9,281.1 463.1,281.1 465.4,281.1 467.6,281.1 469.9,281.1 472.2,281.1 474.4,281.1 476.7,281.1 478.9,281.2 481.2,281.2 483.5,281.2 485.7,281.2 488.0,281.2 490.3,281.2 492.5,281.2 494.8,281.2 497.0,281.2 499.3,281.2 501.6,281.2 503.8,281.3 506.1,281.3 508.3,281.3 510.6,281.3 512.9,281.3 515.1,281.3 517.4,281.3 519.6,281.3 521.9,281.3 524.2,281.3 526.4,281.3 528.7,281.3 531.0,281.3 533.2,281.3 535.5,281.3 537.7,281.3 540.0,281.4" fill="none" stroke="#7a5ba6" stroke-width="3"/>
<circle cx="90.0" cy="89.2" r="5" fill="#c0562e"/>
<text x="90.0" y="75.2" text-anchor="middle" font-size="12" fill="#c0562e">p=1</text>
<text x="90.0" y="61.2" text-anchor="middle" font-size="12" fill="#c0562e">Manhattan</text>
<text x="90.0" y="47.2" text-anchor="middle" font-size="12" fill="#c0562e">5.0</text>
<circle cx="130.9" cy="223.3" r="5" fill="#2e6da4"/>
<text x="130.9" y="209.3" text-anchor="middle" font-size="12" fill="#2e6da4">p=2</text>
<text x="130.9" y="195.3" text-anchor="middle" font-size="12" fill="#2e6da4">Öklid</text>
<text x="130.9" y="181.3" text-anchor="middle" font-size="12" fill="#2e6da4">3.6</text>
<circle cx="458.2" cy="281.0" r="5" fill="#2b2b2b"/>
<text x="458.2" y="267.0" text-anchor="middle" font-size="12" fill="#2b2b2b">p=10</text>
<text x="458.2" y="253.0" text-anchor="middle" font-size="12" fill="#2b2b2b">3.005</text>
<line x1="90" y1="70" x2="90" y2="320" stroke="#999" stroke-width="1.5"/>
<line x1="90" y1="320" x2="540" y2="320" stroke="#999" stroke-width="1.5"/>
<text x="315.0" y="358" text-anchor="middle" font-size="14" fill="#555">p değeri (ayar düğmesi) büyüdükçe →</text>
<text x="35" y="195.0" text-anchor="middle" font-size="14" fill="#555" transform="rotate(-90 35 195.0)">mesafe</text>
</svg>